<?xml version="1.0" encoding="UTF-8"?>
<svg version="1.1" xmlns="http://www.w3.org/2000/svg" width="473" height="161">
<path d="M0 0 C156.09 0 312.18 0 473 0 C473 53.13 473 106.26 473 161 C316.91 161 160.82 161 0 161 C0 107.87 0 54.74 0 0 Z " fill="#FDFDFD" transform="translate(0,0)"/>
<path d="M0 0 C0.71155746 -0.00191345 1.42311493 -0.0038269 2.15623474 -0.00579834 C3.65632482 -0.00715176 5.15642695 -0.00351459 6.65649414 0.00488281 C8.90343969 0.01548275 11.14956516 0.00501717 13.39648438 -0.0078125 C36.923995 -0.03244083 36.923995 -0.03244083 43.37109375 4.265625 C42.13359375 5.2865625 42.13359375 5.2865625 40.87109375 6.328125 C33.98714633 12.08140501 27.46936711 18.0491074 21.18359375 24.453125 C15.20773741 30.52384752 9.18911477 36.13355319 2.37109375 41.265625 C1.53191406 41.91015625 0.69273438 42.5546875 -0.171875 43.21875 C-9.10265827 49.80952959 -16.59922079 52.6662218 -27.74609375 52.89453125 C-30.62890625 52.265625 -30.62890625 52.265625 -33 49.99609375 C-35.13861119 46.41122751 -35.0996247 44.66047063 -34.41015625 40.65625 C-31.02990835 30.31269141 -20.32806029 23.44887614 -11.29296875 18.40234375 C-4.61545623 15.01508255 0.7355354 12.60500325 8.37109375 13.265625 C10.87109375 14.265625 10.87109375 14.265625 12.37109375 15.265625 C9.74796967 12.64250092 8.52491904 12.96725061 4.87109375 12.953125 C-9.1880346 13.23833405 -19.61447734 19.81066139 -29.62890625 29.265625 C-31.62890625 28.265625 -31.62890625 28.265625 -32.62890625 25.265625 C-33.28665162 19.67478936 -32.14184499 16.54328619 -29.04296875 12.05078125 C-22.16760857 3.37111384 -10.64922155 0.01849855 0 0 Z " fill="#FAFAFA" transform="translate(83.62890625,44.734375)"/>
<path d="M0 0 C4.62 0 9.24 0 14 0 C11 2 11 2 9 2 C9 16.19 9 30.38 9 45 C22.69866947 45.74033361 22.69866947 45.74033361 26 42 C26 42.99 26 43.98 26 45 C26.99 44.505 26.99 44.505 28 44 C28.07401579 38.05520371 28.12853813 32.11067407 28.16479492 26.16552734 C28.17990526 24.14204234 28.20039437 22.1185902 28.22631836 20.09521484 C28.26260328 17.19099835 28.27970355 14.28721385 28.29296875 11.3828125 C28.30845261 10.47443634 28.32393646 9.56606018 28.33988953 8.63015747 C28.34011612 7.78943695 28.34034271 6.94871643 28.34057617 6.08251953 C28.34723801 5.34083527 28.35389984 4.599151 28.36076355 3.83499146 C28.18218559 2.92667068 28.18218559 2.92667068 28 2 C27.01 1.34 26.02 0.68 25 0 C35.89 0 46.78 0 58 0 C61.37346437 8.995905 61.37346437 8.995905 62.5 13.0234375 C62.7475 13.9 62.995 14.7765625 63.25 15.6796875 C63.4975 16.56914063 63.745 17.45859375 64 18.375 C64.49932243 20.15383617 64.99932066 21.93248278 65.5 23.7109375 C65.74363281 24.57686523 65.98726563 25.44279297 66.23828125 26.33496094 C67.44865827 30.56972873 68.7203988 34.78571057 70 39 C72.91499819 31.71250451 75.00718694 24.23948174 77.125 16.6875 C77.83479093 14.17024772 78.54634594 11.6534984 79.2578125 9.13671875 C79.72405029 7.47709106 79.72405029 7.47709106 80.19970703 5.78393555 C80.7575734 3.8433162 81.361469 1.91559299 82 0 C84.97 0 87.94 0 91 0 C88 2 88 2 86 2 C86.33 15.86 86.66 29.72 87 44 C88.32 44.66 89.64 45.32 91 46 C86.71 46 82.42 46 78 46 C79.32 45.67 80.64 45.34 82 45 C81.67 33.78 81.34 22.56 81 11 C77.7 22.55 74.4 34.1 71 46 C69.02 45.505 69.02 45.505 67 45 C66.54560547 43.31197266 66.54560547 43.31197266 66.08203125 41.58984375 C63.65562955 32.66861719 61.05167464 23.87016533 58.015625 15.13671875 C57 12 57 12 56 7 C56 19.21 56 31.42 56 44 C57.32 44.66 58.64 45.32 60 46 C40.2 46 20.4 46 0 46 C1.32 45.34 2.64 44.68 4 44 C4.33 30.14 4.66 16.28 5 2 C3.35 1.67 1.7 1.34 0 1 C0 0.67 0 0.34 0 0 Z " fill="#424242" transform="translate(294,59)"/>
<path d="M0 0 C4.29 0 8.58 0 13 0 C10 2 10 2 8 2 C8 16.19 8 30.38 8 45 C12.95 44.67 17.9 44.34 23 44 C23.66 40.37 24.32 36.74 25 33 C25.33 33 25.66 33 26 33 C26 36.96 26 40.92 26 45 C26.99 44.505 26.99 44.505 28 44 C28.33 30.14 28.66 16.28 29 2 C26.525 1.505 26.525 1.505 24 1 C24 0.67 24 0.34 24 0 C48.09 0 72.18 0 97 0 C94 2 94 2 92 2 C92 16.19 92 30.38 92 45 C105.69866947 45.74033361 105.69866947 45.74033361 109 42 C109 42.99 109 43.98 109 45 C109.99 45 110.98 45 112 45 C112 30.48 112 15.96 112 1 C113.32 1 114.64 1 116 1 C116 15.85 116 30.7 116 46 C105.11 46 94.22 46 83 46 C84.32 45.34 85.64 44.68 87 44 C87.33 30.14 87.66 16.28 88 2 C87.34 2 86.68 2 86 2 C86 4.97 86 7.94 86 11 C85.67 11 85.34 11 85 11 C84.77213542 8.94921875 84.54427083 6.8984375 84.31640625 4.84765625 C84.18113386 2.98859771 84.18113386 2.98859771 83 2 C80.03 1.67 77.06 1.34 74 1 C74.33 15.19 74.66 29.38 75 44 C76.65 44.33 78.3 44.66 80 45 C80 45.33 80 45.66 80 46 C75.05 46 70.1 46 65 46 C66.32 45.34 67.64 44.68 69 44 C69.33 29.81 69.66 15.62 70 1 C67.36 1 64.72 1 62 1 C62 3.97 62 6.94 62 10 C60.68 10.33 59.36 10.66 58 11 C58 7.7 58 4.4 58 1 C55.69 1 53.38 1 51 1 C51 15.52 51 30.04 51 45 C52.65 45 54.3 45 56 45 C56 45.33 56 45.66 56 46 C51.05 46 46.1 46 41 46 C41 45.67 41 45.34 41 45 C42.65 45 44.3 45 46 45 C46 30.48 46 15.96 46 1 C42.7 1.33 39.4 1.66 36 2 C36 4.97 36 7.94 36 11 C35.34 11 34.68 11 34 11 C33.67 22.22 33.34 33.44 33 45 C34.32 45.33 35.64 45.66 37 46 C24.79 46 12.58 46 0 46 C0.99 45.34 1.98 44.68 3 44 C3.45600276 42.12494713 3.45600276 42.12494713 3.38818359 39.94921875 C3.39764008 39.11495361 3.40709656 38.28068848 3.4168396 37.42114258 C3.41076691 36.51904053 3.40469421 35.61693848 3.3984375 34.6875 C3.40130768 33.76283936 3.40417786 32.83817871 3.40713501 31.88549805 C3.40917849 29.92854196 3.40362882 27.97156557 3.39111328 26.01464844 C3.37506364 23.01190707 3.39095237 20.01051179 3.41015625 17.0078125 C3.40817387 15.10937202 3.4043303 13.21093237 3.3984375 11.3125 C3.40451019 10.41039795 3.41058289 9.5082959 3.4168396 8.57885742 C3.40265488 7.32745972 3.40265488 7.32745972 3.38818359 6.05078125 C3.38579681 5.31512939 3.38341003 4.57947754 3.38095093 3.8215332 C3.13505173 1.5838448 3.13505173 1.5838448 0 0 Z " fill="#737373" transform="translate(157,59)"/>
<path d="M0 0 C12 0 12 0 15 2 C15.33 1.34 15.66 0.68 16 0 C18.475 0.495 18.475 0.495 21 1 C21 15.19 21 29.38 21 44 C20.01 44 19.02 44 18 44 C17.67 42.68 17.34 41.36 17 40 C16.34 41.32 15.68 42.64 15 44 C10.05 44 5.1 44 0 44 C0 29.48 0 14.96 0 0 Z " fill="#F8F8F8" transform="translate(327,60)"/>
<path d="M0 0 C1.85371216 0.00193359 1.85371216 0.00193359 3.74487305 0.00390625 C12.10590184 0.09133613 19.93165135 0.83191626 28.08203125 2.65625 C34.38253524 3.86594677 38.1176539 3.75122112 43.5 0.3125 C44.49 0.6425 45.48 0.9725 46.5 1.3125 C44.52 2.3025 42.54 3.2925 40.5 4.3125 C46.83307408 6.16352717 52.92465139 7.69218409 59.5 8.3125 C59.5 8.6425 59.5 8.9725 59.5 9.3125 C57.7709226 9.33975341 56.04171824 9.35900987 54.3125 9.375 C52.86810547 9.39240234 52.86810547 9.39240234 51.39453125 9.41015625 C48.63184562 9.31694823 46.18831291 8.9283844 43.5 8.3125 C40.21486878 7.47602514 40.21486878 7.47602514 36.5 8.3125 C32.82253242 10.96844881 29.68971507 14.09770855 26.5 17.3125 C25.78328125 18.00472656 25.0665625 18.69695313 24.328125 19.41015625 C21.06676192 22.58935321 17.97652934 25.86563871 15 29.3125 C4.24185131 41.71459051 -10.52169436 56.29619887 -27.77734375 57.55078125 C-28.98519531 57.57527344 -30.19304688 57.59976563 -31.4375 57.625 C-32.64277344 57.66238281 -33.84804688 57.69976562 -35.08984375 57.73828125 C-39.09587952 57.23810038 -40.667599 56.12403616 -43.5 53.3125 C-45.33949408 49.63351184 -44.87825034 45.33683559 -44.5 41.3125 C-43.54605164 39.29012948 -42.55464649 37.2842304 -41.5 35.3125 C-41.78566879 32.96184822 -41.78566879 32.96184822 -42.5 30.3125 C-43.03642106 24.69923674 -43.15448771 19.84155911 -39.890625 14.96875 C-29.0850106 2.09914184 -16.06351006 -0.06944975 0 0 Z M-36.5 13.3125 C-39.66942936 17.11736508 -41.35901317 20.1040415 -41.9375 25.0625 C-41.53413857 28.05889921 -40.90678997 29.7136109 -39.5 32.3125 C-39.02691406 31.94898437 -38.55382813 31.58546875 -38.06640625 31.2109375 C-27.44388594 23.13533726 -18.17382208 16.27000108 -4.375 16.0625 C-2.82425781 16.02382813 -2.82425781 16.02382813 -1.2421875 15.984375 C1.5 16.3125 1.5 16.3125 3.3671875 17.828125 C3.74101563 18.31796875 4.11484375 18.8078125 4.5 19.3125 C3.51 18.6525 2.52 17.9925 1.5 17.3125 C-2.70661425 15.20919287 -6.95772716 15.85346469 -11.30859375 17.1484375 C-18.9287394 20.1013678 -25.13330813 24.24328562 -31.5 29.3125 C-32.18191406 29.8178125 -32.86382812 30.323125 -33.56640625 30.84375 C-39.10338654 35.14896146 -42.85488356 40.58516056 -44.0625 47.5625 C-43.33073489 51.14001831 -42.06684068 52.72857552 -39.5 55.3125 C-30.23915263 57.33282036 -21.7094729 54.60602694 -13.9296875 49.6875 C-2.2592844 41.52162028 8.12572524 31.8507891 18.0715332 21.70263672 C23.23532613 16.47139222 28.66262867 11.79064973 34.5 7.3125 C26.12666456 1.73027638 12.43631955 2.9396991 2.57666016 2.94189453 C0.36934956 2.93748872 -1.83600448 2.90090274 -4.04296875 2.86328125 C-16.02473162 2.76821247 -27.68265885 4.4544321 -36.5 13.3125 Z " fill="#141414" transform="translate(92.5,41.6875)"/>
<path d="M0 0 C4.29 0 8.58 0 13 0 C10 2 10 2 8 2 C8 16.19 8 30.38 8 45 C12.95 44.67 17.9 44.34 23 44 C23.66 40.37 24.32 36.74 25 33 C25.33 33 25.66 33 26 33 C26 36.96 26 40.92 26 45 C26.99 44.505 26.99 44.505 28 44 C28 29.81 28 15.62 28 1 C29.65 1 31.3 1 33 1 C33 15.52 33 30.04 33 45 C34.32 45.33 35.64 45.66 37 46 C24.79 46 12.58 46 0 46 C0.99 45.34 1.98 44.68 3 44 C3.45600276 42.12494713 3.45600276 42.12494713 3.38818359 39.94921875 C3.39764008 39.11495361 3.40709656 38.28068848 3.4168396 37.42114258 C3.41076691 36.51904053 3.40469421 35.61693848 3.3984375 34.6875 C3.40130768 33.76283936 3.40417786 32.83817871 3.40713501 31.88549805 C3.40917849 29.92854196 3.40362882 27.97156557 3.39111328 26.01464844 C3.37506364 23.01190707 3.39095237 20.01051179 3.41015625 17.0078125 C3.40817387 15.10937202 3.4043303 13.21093237 3.3984375 11.3125 C3.40451019 10.41039795 3.41058289 9.5082959 3.4168396 8.57885742 C3.40265488 7.32745972 3.40265488 7.32745972 3.38818359 6.05078125 C3.38579681 5.31512939 3.38341003 4.57947754 3.38095093 3.8215332 C3.13505173 1.5838448 3.13505173 1.5838448 0 0 Z " fill="#191919" transform="translate(157,59)"/>
<path d="M0 0 C4.62 0 9.24 0 14 0 C11 2 11 2 9 2 C9 16.19 9 30.38 9 45 C22.69866947 45.74033361 22.69866947 45.74033361 26 42 C26 42.99 26 43.98 26 45 C26.99 44.505 26.99 44.505 28 44 C28 29.81 28 15.62 28 1 C29.65 1 31.3 1 33 1 C33 15.85 33 30.7 33 46 C22.11 46 11.22 46 0 46 C1.32 45.34 2.64 44.68 4 44 C4.33 30.14 4.66 16.28 5 2 C3.35 1.67 1.7 1.34 0 1 C0 0.67 0 0.34 0 0 Z " fill="#1B1B1B" transform="translate(294,59)"/>
<path d="M0 0 C1.98 0 3.96 0 6 0 C5.67 14.52 5.34 29.04 5 44 C18.69866947 44.74033361 18.69866947 44.74033361 22 41 C22 41.99 22 42.98 22 44 C22.99 44 23.98 44 25 44 C25 29.48 25 14.96 25 0 C26.32 0 27.64 0 29 0 C29 14.85 29 29.7 29 45 C18.11 45 7.22 45 -4 45 C-2.68 44.34 -1.36 43.68 0 43 C0 28.81 0 14.62 0 0 Z " fill="#1E1E1E" transform="translate(244,60)"/>
<path d="M0 0 C5.42381418 3.58176408 8.05046647 7.37450834 9.6875 13.625 C10.61371385 23.62810961 11.0755352 34.17778836 4.5625 42.5 C0.9173441 46.05624965 -0.69761556 46.80464233 -5.75 47.5625 C-10.38135492 47.40667871 -13.06155847 45.41878037 -16.30078125 42.23046875 C-22.23231396 34.44447983 -21.91695156 23.31375517 -21 14 C-19.39601523 7.54781266 -16.44422919 3.70670923 -11 0 C-7.12699843 -1.29100052 -3.88039709 -1.06563935 0 0 Z M-15 6 C-17.21715451 11.16558104 -17.30206515 15.85609403 -17.25 21.375 C-17.25773437 22.18710938 -17.26546875 22.99921875 -17.2734375 23.8359375 C-17.25045578 31.00623267 -16.49418634 38.1229871 -12 44 C-9.3259797 46.10101595 -7.95715315 45.99846976 -4.5 45.875 C-0.61621694 44.90405423 0.66568034 44.19888249 3 41 C5.61762503 35.20921082 5.33146888 29.35438084 5.3125 23.125 C5.32861328 22.07441406 5.34472656 21.02382812 5.36132812 19.94140625 C5.36529952 13.5951247 4.83335408 8.71979209 2 3 C-4.26112392 -1.17408262 -10.58249595 -0.15773292 -15 6 Z " fill="#111111" transform="translate(405,59)"/>
<path d="M0 0 C2.64 0 5.28 0 8 0 C13.94 12.21 19.88 24.42 26 37 C26 25.45 26 13.9 26 2 C24.68 1.34 23.36 0.68 22 0 C25.63 0 29.26 0 33 0 C30 2 30 2 28 2 C28 16.52 28 31.04 28 46 C27.01 46 26.02 46 25 46 C23.25701637 42.39351965 21.51556808 38.78630203 19.77539062 35.1784668 C18.90050368 33.36535375 18.02448748 31.55278575 17.1484375 29.74023438 C16.58125 28.56396484 16.0140625 27.38769531 15.4296875 26.17578125 C14.65987549 24.58117065 14.65987549 24.58117065 13.87451172 22.9543457 C11.20536428 17.32368914 8.61126181 11.65773393 6 6 C6 18.54 6 31.08 6 44 C7.65 44.33 9.3 44.66 11 45 C11 45.33 11 45.66 11 46 C7.37 46 3.74 46 0 46 C1.98 45.505 1.98 45.505 4 45 C3.93129663 38.91235009 3.84341594 32.82539852 3.73754883 26.73828125 C3.70424177 24.66641973 3.67622803 22.59446621 3.65356445 20.52246094 C3.62012437 17.54842827 3.56781495 14.57524321 3.51171875 11.6015625 C3.50213387 10.20618759 3.50213387 10.20618759 3.49235535 8.78262329 C3.47256119 7.92188202 3.45276703 7.06114075 3.43237305 6.17431641 C3.42126999 5.41486725 3.41016693 4.65541809 3.39872742 3.87295532 C3.14042752 1.589281 3.14042752 1.589281 0 0 Z " fill="#2A2A2A" transform="translate(414,59)"/>
<path d="M0 0 C0 0.66 0 1.32 0 2 C0.66 2.33 1.32 2.66 2 3 C1.3709375 3.14695313 0.741875 3.29390625 0.09375 3.4453125 C-7.63909448 5.47169042 -14.05963649 8.52854279 -18.5 15.4375 C-20.13712187 19.32566444 -20.48155805 21.82649694 -20 26 C-19.34 26.99 -18.68 27.98 -18 29 C-17.51273438 28.50371094 -17.02546875 28.00742188 -16.5234375 27.49609375 C-7.4304609 18.7833689 3.30615327 12.99391035 16.0625 12.6875 C17.08472656 12.65011719 18.10695312 12.61273438 19.16015625 12.57421875 C22.6968714 13.10448278 23.86159163 14.18848488 26 17 C25.75 19.25 25.75 19.25 25 21 C24.67 19.35 24.34 17.7 24 16 C16.35253365 13.45084455 10.20244751 15.21332298 3.09765625 18.375 C-2.01612801 21.05764092 -6.48118562 24.42749578 -11 28 C-11.91265625 28.64775391 -11.91265625 28.64775391 -12.84375 29.30859375 C-17.32261203 32.61061193 -19.90522504 36.93315117 -22 42 C-22.51415307 45.40626412 -22.43075833 47.06584567 -21.00390625 50.16015625 C-18.35707744 52.59028562 -16.27535313 52.35594542 -12.79101562 52.25390625 C-12.01435547 52.21136719 -11.23769531 52.16882813 -10.4375 52.125 C-7.60743372 51.99880382 -4.83718467 51.95926094 -2 52 C-1.34 52.66 -0.68 53.32 0 54 C-3.64207973 55.11714665 -7.14115765 55.23551974 -10.9375 55.3125 C-12.14277344 55.34988281 -13.34804688 55.38726562 -14.58984375 55.42578125 C-18.59587952 54.92560038 -20.167599 53.81153616 -23 51 C-24.83949408 47.32101184 -24.37825034 43.02433559 -24 39 C-23.04605164 36.97762948 -22.05464649 34.9717304 -21 33 C-21.28566879 30.64934822 -21.28566879 30.64934822 -22 28 C-22.53642106 22.38673674 -22.65448771 17.52905911 -19.390625 12.65625 C-14.90847793 7.31796247 -7.43255923 0 0 0 Z " fill="#222222" transform="translate(72,44)"/>
<path d="M0 0 C1.65 0 3.3 0 5 0 C5 14.52 5 29.04 5 44 C6.32 44.33 7.64 44.66 9 45 C5.7 45 2.4 45 -1 45 C-0.67 44.34 -0.34 43.68 0 43 C0.08918777 41.61090696 0.11759541 40.21763093 0.11352539 38.82568359 C0.11344986 37.96494232 0.11337433 37.10420105 0.11329651 36.21737671 C0.10813522 35.28712677 0.10297394 34.35687683 0.09765625 33.3984375 C0.0962413 32.44683746 0.09482635 31.49523743 0.09336853 30.51480103 C0.08776012 27.46816903 0.07520619 24.42160987 0.0625 21.375 C0.05748608 19.31250106 0.05292299 17.25000097 0.04882812 15.1875 C0.03778796 10.12497183 0.02051767 5.06249827 0 0 Z " fill="#191919" transform="translate(185,60)"/>
<path d="M0 0 C-0.59425781 0.38929687 -1.18851563 0.77859375 -1.80078125 1.1796875 C-7.77974638 5.2152565 -13.1030214 9.64304419 -18.37109375 14.56640625 C-21.3661295 17.3389282 -24.47465471 19.94826546 -27.63671875 22.52734375 C-29.3396652 24.03244936 -29.3396652 24.03244936 -29 27 C-31.01171875 29.0859375 -31.01171875 29.0859375 -33.6875 31.375 C-37.26040552 34.48165402 -40.70873265 37.59902374 -44 41 C-42.80090315 28.88559503 -28.20841714 17.11563606 -19.21240234 9.48339844 C-5.25127106 -1.87545395 -5.25127106 -1.87545395 0 0 Z " fill="#181818" transform="translate(143,53)"/>
<path d="M0 0 C0.33 1.32 0.66 2.64 1 4 C-5.93443804 9.88976945 -5.93443804 9.88976945 -10.625 10.375 C-15.17800662 11.21814937 -16.291405 13.30465644 -18.8359375 16.9921875 C-20.14202937 19.08899879 -20.14202937 19.08899879 -21 22 C-20.38511719 21.7834375 -19.77023438 21.566875 -19.13671875 21.34375 C-18.32847656 21.0653125 -17.52023438 20.786875 -16.6875 20.5 C-15.88699219 20.2215625 -15.08648437 19.943125 -14.26171875 19.65625 C-12 19 -12 19 -9 19 C-15.97107068 23.8434238 -15.97107068 23.8434238 -19.875 24.4375 C-22 24 -22 24 -24 22 C-24.89453125 19.71484375 -24.89453125 19.71484375 -25 17 C-19.73342132 8.86934932 -10.28904682 -0.67379599 0 0 Z " fill="#1D1D1D" transform="translate(150,70)"/>
<path d="M0 0 C4.62 0 9.24 0 14 0 C11 2 11 2 9 2 C8.67 16.52 8.34 31.04 8 46 C5.36 46 2.72 46 0 46 C1.32 45.34 2.64 44.68 4 44 C4.33 30.14 4.66 16.28 5 2 C3.35 1.67 1.7 1.34 0 1 C0 0.67 0 0.34 0 0 Z " fill="#131313" transform="translate(294,59)"/>
<path d="M0 0 C2.97 0 5.94 0 9 0 C6 2 6 2 4 2 C4.33 15.86 4.66 29.72 5 44 C6.32 44.66 7.64 45.32 9 46 C4.71 46 0.42 46 -4 46 C-2.68 45.34 -1.36 44.68 0 44 C0 29.48 0 14.96 0 0 Z " fill="#0E0E0E" transform="translate(376,59)"/>
<path d="M0 0 C7.92 0 15.84 0 24 0 C24 3.63 24 7.26 24 11 C23.67 11 23.34 11 23 11 C22.67 8.36 22.34 5.72 22 3 C17.71 2.67 13.42 2.34 9 2 C9 8.27 9 14.54 9 21 C12.96 21 16.92 21 21 21 C21 21.66 21 22.32 21 23 C17.04 23 13.08 23 9 23 C9 30.26 9 37.52 9 45 C13.62 44.67 18.24 44.34 23 44 C23.66 41.03 24.32 38.06 25 35 C25.33 35 25.66 35 26 35 C26 38.63 26 42.26 26 46 C20.06 46 14.12 46 8 46 C8 31.15 8 16.3 8 1 C6.35 1.33 4.7 1.66 3 2 C2.01 1.34 1.02 0.68 0 0 Z " fill="#B8B8B8" transform="translate(265,59)"/>
<path d="M0 0 C0.99 0 1.98 0 3 0 C3.33 14.19 3.66 28.38 4 43 C5.65 43.33 7.3 43.66 9 44 C9 44.33 9 44.66 9 45 C4.05 45 -0.9 45 -6 45 C-4.68 44.34 -3.36 43.68 -2 43 C0.17782681 40.82217319 -0.73910084 35.74896922 -0.68359375 32.71484375 C-0.66281265 31.78402481 -0.64203156 30.85320587 -0.62062073 29.8941803 C-0.55502069 26.90869818 -0.49619198 23.92312516 -0.4375 20.9375 C-0.3943247 18.91861024 -0.35071075 16.8997298 -0.30664062 14.88085938 C-0.19932871 9.92066703 -0.09809112 4.96038291 0 0 Z " fill="#080808" transform="translate(228,60)"/>
<path d="M0 0 C0.99 0 1.98 0 3 0 C3.33 14.19 3.66 28.38 4 43 C5.65 43.33 7.3 43.66 9 44 C9 44.33 9 44.66 9 45 C4.05 45 -0.9 45 -6 45 C-6 44.67 -6 44.34 -6 44 C-4.35 44 -2.7 44 -1 44 C-0.67 29.48 -0.34 14.96 0 0 Z " fill="#080808" transform="translate(204,60)"/>
<path d="M0 0 C1.98 0 3.96 0 6 0 C5.67 0.99 5.34 1.98 5 3 C4.88705254 4.39579273 4.82410813 5.79599909 4.79467773 7.19604492 C4.77473251 8.03668991 4.75478729 8.8773349 4.73423767 9.74345398 C4.70916893 11.09827629 4.70916893 11.09827629 4.68359375 12.48046875 C4.66281265 13.40845779 4.64203156 14.33644684 4.62062073 15.29255676 C4.55522677 18.2574624 4.49628738 21.22245672 4.4375 24.1875 C4.39430513 26.1972748 4.35069053 28.20704063 4.30664062 30.21679688 C4.19955573 35.14444032 4.09825955 40.07217299 4 45 C1.36 45 -1.28 45 -4 45 C-2.68 44.34 -1.36 43.68 0 43 C0 28.81 0 14.62 0 0 Z " fill="#080808" transform="translate(244,60)"/>
<path d="M0 0 C-0.17394612 5.70760721 -4.11521592 8.52830869 -8 12.1875 C-9.29364026 13.42893627 -10.5854018 14.67233413 -11.875 15.91796875 C-12.44992188 16.46219482 -13.02484375 17.0064209 -13.6171875 17.56713867 C-15.11037563 18.97131996 -15.11037563 18.97131996 -16 21 C-15.44570312 20.69964844 -14.89140625 20.39929688 -14.3203125 20.08984375 C-13.59585938 19.70957031 -12.87140625 19.32929687 -12.125 18.9375 C-11.40570313 18.55464844 -10.68640625 18.17179687 -9.9453125 17.77734375 C-9.30335937 17.52082031 -8.66140625 17.26429687 -8 17 C-7.34 17.33 -6.68 17.66 -6 18 C-13.0547046 23.05908096 -13.0547046 23.05908096 -17 22.8125 C-17.66 22.544375 -18.32 22.27625 -19 22 C-18.2603911 14.04920427 -13.57989007 10.46515174 -7.8046875 5.55078125 C-5.92288746 3.97318991 -5.92288746 3.97318991 -4 2 C-7.91211733 3.15585285 -10.8745041 4.35534962 -14 7 C-14.66 6.67 -15.32 6.34 -16 6 C-14.54261898 5.01941648 -13.08406325 4.04057868 -11.625 3.0625 C-10.81289062 2.51722656 -10.00078125 1.97195312 -9.1640625 1.41015625 C-5.52915787 -0.95843684 -4.21372024 -0.99798637 0 0 Z " fill="#222222" transform="translate(131,71)"/>
<path d="M0 0 C5.42381418 3.58176408 8.05046647 7.37450834 9.6875 13.625 C10.16185349 18.74801774 10.07486633 23.85917855 10 29 C9.67 29 9.34 29 9 29 C8.92652344 28.04287109 8.92652344 28.04287109 8.8515625 27.06640625 C8.77679688 26.24011719 8.70203125 25.41382812 8.625 24.5625 C8.55539062 23.73878906 8.48578125 22.91507813 8.4140625 22.06640625 C8.27742188 21.38449219 8.14078125 20.70257813 8 20 C7.34 19.67 6.68 19.34 6 19 C6 22.3 6 25.6 6 29 C5.67 29 5.34 29 5 29 C4.95101563 27.7934375 4.90203125 26.586875 4.8515625 25.34375 C4.77646468 23.72914694 4.70091997 22.11456461 4.625 20.5 C4.5940625 19.70851563 4.563125 18.91703125 4.53125 18.1015625 C4.27184072 12.82690721 3.66519406 8.02956572 2 3 C-1.01490557 1.99503148 -3.04181692 1.89664697 -6.1875 1.9375 C-7.08855469 1.94652344 -7.98960937 1.95554688 -8.91796875 1.96484375 C-9.94857422 1.98224609 -9.94857422 1.98224609 -11 2 C-11 1.34 -11 0.68 -11 0 C-7.12699843 -1.29100052 -3.88039709 -1.06563935 0 0 Z " fill="#434343" transform="translate(405,59)"/>
<path d="M0 0 C0.99 0.33 1.98 0.66 3 1 C3.80239602 16.86961022 3.80239602 16.86961022 -1 23 C-4.59692804 26.34000461 -7.10202973 28.14248189 -12 28.1875 C-13.051875 28.20876953 -13.051875 28.20876953 -14.125 28.23046875 C-16 28 -16 28 -18 26 C-16 25 -16 25 -13.1875 25.5 C-10.05349514 25.99160861 -8.03280928 25.80280246 -5 25 C-1.78556091 16.81779142 -0.90504172 8.67775296 0 0 Z " fill="#2C2C2C" transform="translate(411,78)"/>
<path d="M0 0 C0.66 0.33 1.32 0.66 2 1 C2 14.2 2 27.4 2 41 C3.32 41.66 4.64 42.32 6 43 C-2.91 43 -11.82 43 -21 43 C-21 42.67 -21 42.34 -21 42 C-16.05 41.67 -11.1 41.34 -6 41 C-5.34 38.03 -4.68 35.06 -4 32 C-3.67 32 -3.34 32 -3 32 C-3 35.3 -3 38.6 -3 42 C-2.01 42 -1.02 42 0 42 C0 28.14 0 14.28 0 0 Z " fill="#646464" transform="translate(348,62)"/>
<path d="M0 0 C0.33 0 0.66 0 1 0 C1.04898437 0.92683594 1.09796875 1.85367188 1.1484375 2.80859375 C1.22320312 4.00613281 1.29796875 5.20367187 1.375 6.4375 C1.44460938 7.63246094 1.51421875 8.82742187 1.5859375 10.05859375 C1.72257812 11.02925781 1.85921875 11.99992187 2 13 C2.66 13.33 3.32 13.66 4 14 C4.33 19.61 4.66 25.22 5 31 C4.67 30.01 4.34 29.02 4 28 C3.34 28 2.68 28 2 28 C1.67 32.62 1.34 37.24 1 42 C0.67 42 0.34 42 0 42 C0 28.14 0 14.28 0 0 Z " fill="#C3C3C3" transform="translate(380,61)"/>
<path d="M0 0 C1.30388672 0.00902344 2.60777344 0.01804688 3.95117188 0.02734375 C7.15513832 0.05081603 10.35872264 0.08365273 13.5625 0.125 C13.5625 0.785 13.5625 1.445 13.5625 2.125 C12.45177124 2.16258423 12.45177124 2.16258423 11.31860352 2.20092773 C7.92060351 2.3179172 4.52281183 2.44017147 1.125 2.5625 C-0.03966797 2.60181641 -1.20433594 2.64113281 -2.40429688 2.68164062 C-8.79796672 2.91577501 -15.09015809 3.31715648 -21.4375 4.125 C-21.4375 3.465 -21.4375 2.805 -21.4375 2.125 C-14.43305999 -0.5503801 -7.40824658 -0.0972309 0 0 Z " fill="#101010" transform="translate(93.4375,41.875)"/>
<path d="M0 0 C0.99 0.33 1.98 0.66 3 1 C2.505 1.86625 2.01 2.7325 1.5 3.625 C-0.08304208 7.18684468 -0.5005569 9.16239709 0 13 C0.88160054 15.31677732 0.88160054 15.31677732 3 17 C5.97974451 17.24215961 8.60494622 17.2869905 11.5625 17.125 C14.39256628 16.99880382 17.16281533 16.95926094 20 17 C20.66 17.66 21.32 18.32 22 19 C18.35792027 20.11714665 14.85884235 20.23551974 11.0625 20.3125 C9.85722656 20.34988281 8.65195312 20.38726562 7.41015625 20.42578125 C3.40412048 19.92560038 1.832401 18.81153616 -1 16 C-2.22485812 13.55028376 -2.16722808 11.85765539 -2.1875 9.125 C-2.20167969 8.26132813 -2.21585938 7.39765625 -2.23046875 6.5078125 C-1.98859252 3.8758712 -1.32983541 2.26019456 0 0 Z " fill="#343434" transform="translate(50,79)"/>
<path d="M0 0 C0.33 1.32 0.66 2.64 1 4 C-0.21705006 5.01471171 -1.44926884 6.0112461 -2.6875 7 C-3.71423828 7.8353125 -3.71423828 7.8353125 -4.76171875 8.6875 C-7.38783056 10.22741897 -9.00603356 10.25168194 -12 10 C-12 9.34 -12 8.68 -12 8 C-10.04072937 6.2856382 -8.04119788 4.61594832 -6 3 C-6.33 2.34 -6.66 1.68 -7 1 C-4.53721199 -0.231394 -2.7204945 -0.07159196 0 0 Z " fill="#434343" transform="translate(150,70)"/>
<path d="M0 0 C-0.33 0.66 -0.66 1.32 -1 2 C-1.76078857 1.93433838 -2.52157715 1.86867676 -3.30541992 1.80102539 C-11.97117586 1.08938915 -20.62277267 0.70562006 -29.3125 0.4375 C-30.65039916 0.39414291 -31.98828988 0.35052433 -33.32617188 0.30664062 C-36.55070824 0.2018723 -39.77530363 0.09969983 -43 0 C-43 -0.33 -43 -0.66 -43 -1 C-38.91718651 -1.20014682 -34.83375724 -1.3827259 -30.75 -1.5625 C-29.61046875 -1.61857422 -28.4709375 -1.67464844 -27.296875 -1.73242188 C-18.07036332 -2.12559709 -9.05667196 -1.94261722 0 0 Z " fill="#3E3E3E" transform="translate(124,45)"/>
<path d="M0 0 C3.63 0 7.26 0 11 0 C8 2 8 2 6 2 C6 14.87 6 27.74 6 41 C5.34 41 4.68 41 4 41 C4 28.13 4 15.26 4 2 C2.68 1.34 1.36 0.68 0 0 Z " fill="#727272" transform="translate(436,59)"/>
<path d="M0 0 C10.89 0 21.78 0 33 0 C28.82091936 2.08954032 28.19589427 2.16552619 24 1 C24 4.3 24 7.6 24 11 C23.67 11 23.34 11 23 11 C22.8046875 8.94921875 22.609375 6.8984375 22.4140625 4.84765625 C22.27742188 4.23792969 22.14078125 3.62820312 22 3 C19.65061112 1.82530556 18.04926795 1.79965111 15.4296875 1.68359375 C14.53378906 1.64169922 13.63789063 1.59980469 12.71484375 1.55664062 C11.77769531 1.51732422 10.84054687 1.47800781 9.875 1.4375 C8.93011719 1.39431641 7.98523438 1.35113281 7.01171875 1.30664062 C4.67462908 1.20040928 2.3374317 1.09836824 0 1 C0 0.67 0 0.34 0 0 Z " fill="#626262" transform="translate(319,59)"/>
<path d="M0 0 C-1.98 0.99 -3.96 1.98 -6 3 C0.33307408 4.85102717 6.42465139 6.37968409 13 7 C13 7.33 13 7.66 13 8 C5.10042938 8.27990605 -2.2472493 7.51537186 -10 6 C-5.53218495 -1.84406165 -5.53218495 -1.84406165 0 0 Z " fill="#383838" transform="translate(139,43)"/>
<path d="M0 0 C2.375 1.8828125 2.375 1.8828125 4 4 C3.75 6.25 3.75 6.25 3 8 C2.67 6.35 2.34 4.7 2 3 C-5.44086046 0.51971318 -11.98016279 2.27006331 -19 5 C-19.33 4.01 -19.66 3.02 -20 2 C-13.51659126 0.005105 -6.75997476 -1.1395386 0 0 Z " fill="#393939" transform="translate(94,57)"/>
<path d="M0 0 C7.92 0 15.84 0 24 0 C24 3.63 24 7.26 24 11 C23.67 11 23.34 11 23 11 C22.8046875 8.94921875 22.609375 6.8984375 22.4140625 4.84765625 C22.27742188 4.23792969 22.14078125 3.62820312 22 3 C18.24641373 1.12320686 13.36691473 2.01308449 9.20898438 2.12695312 C3.31977916 2.2131861 3.31977916 2.2131861 0 0 Z " fill="#616161" transform="translate(265,59)"/>
<path d="M0 0 C4.62 0 9.24 0 14 0 C14 0.66 14 1.32 14 2 C13.34 2 12.68 2 12 2 C12 4.97 12 7.94 12 11 C11.34 11 10.68 11 10 11 C9.67 8.03 9.34 5.06 9 2 C6.03 1.67 3.06 1.34 0 1 C0 0.67 0 0.34 0 0 Z " fill="#787878" transform="translate(181,59)"/>
<path d="M0 0 C2.0625 0.4375 2.0625 0.4375 4 1 C4.38218767 2.65614657 4.71395102 4.32457024 5 6 C4 7 4 7 1.4375 7.0625 C0.2309375 7.0315625 0.2309375 7.0315625 -1 7 C-1.04254356 5.00045254 -1.04080783 2.99958364 -1 1 C-0.67 0.67 -0.34 0.34 0 0 Z " fill="#727272" transform="translate(314,129)"/>
<path d="M0 0 C0.33 0 0.66 0 1 0 C1.33 4.29 1.66 8.58 2 13 C-4.27 13 -10.54 13 -17 13 C-17 12.67 -17 12.34 -17 12 C-12.05 11.67 -7.1 11.34 -2 11 C-1.34 7.37 -0.68 3.74 0 0 Z " fill="#5E5E5E" transform="translate(182,92)"/>
<path d="M0 0 C0.33 0 0.66 0 1 0 C1 3.63 1 7.26 1 11 C-4.94 11 -10.88 11 -17 11 C-17 10.67 -17 10.34 -17 10 C-12.05 9.67 -7.1 9.34 -2 9 C-1.34 6.03 -0.68 3.06 0 0 Z " fill="#5F5F5F" transform="translate(290,94)"/>
<path d="M0 0 C2.475 0.495 2.475 0.495 5 1 C5.33 3.31 5.66 5.62 6 8 C5.34 8 4.68 8 4 8 C4 7.01 4 6.02 4 5 C3.01 5 2.02 5 1 5 C0.67 5.99 0.34 6.98 0 8 C0 5.36 0 2.72 0 0 Z " fill="#555555" transform="translate(322,114)"/>
<path d="M0 0 C2.475 0.495 2.475 0.495 5 1 C5.33 3.31 5.66 5.62 6 8 C5.34 8 4.68 8 4 8 C4 7.01 4 6.02 4 5 C3.01 5 2.02 5 1 5 C0.67 5.99 0.34 6.98 0 8 C0 5.36 0 2.72 0 0 Z " fill="#555555" transform="translate(229,114)"/>
<path d="M0 0 C1.32 0 2.64 0 4 0 C4 1.65 4 3.3 4 5 C3.01 5 2.02 5 1 5 C1 5.66 1 6.32 1 7 C1.99 7.33 2.98 7.66 4 8 C2.35 8 0.7 8 -1 8 C-1.04241723 5.66705225 -1.04092937 3.33297433 -1 1 C-0.67 0.67 -0.34 0.34 0 0 Z " fill="#4A4A4A" transform="translate(245,114)"/>
<path d="M0 0 C4.95 0 9.9 0 15 0 C11.00889681 1.9955516 9.30013434 2.19546065 5 2 C4.67 4.97 4.34 7.94 4 11 C3.67 11 3.34 11 3 11 C2.8046875 9.01432292 2.609375 7.02864583 2.4140625 5.04296875 C2.07334609 2.70011858 2.07334609 2.70011858 0 0 Z " fill="#5F5F5F" transform="translate(239,59)"/>
<path d="M0 0 C2.0625 0.4375 2.0625 0.4375 4 1 C3.67 2.65 3.34 4.3 3 6 C1.68 6 0.36 6 -1 6 C-1.042721 4.33388095 -1.04063832 2.66617115 -1 1 C-0.67 0.67 -0.34 0.34 0 0 Z " fill="#6A6A6A" transform="translate(296,138)"/>
<path d="M0 0 C0.99 0.33 1.98 0.66 3 1 C4.1875 4.0625 4.1875 4.0625 5 7 C2.69 7 0.38 7 -2 7 C-1.34 4.69 -0.68 2.38 0 0 Z " fill="#505050" transform="translate(339,115)"/>
<path d="M0 0 C1.98 0.495 1.98 0.495 4 1 C3.34 1.66 2.68 2.32 2 3 C2.99 3.66 3.98 4.32 5 5 C4.67 5.99 4.34 6.98 4 8 C2.35 8 0.7 8 -1 8 C-1 7.34 -1 6.68 -1 6 C0.32 6.33 1.64 6.66 3 7 C3 6.34 3 5.68 3 5 C1.68 4.67 0.36 4.34 -1 4 C-0.67 2.68 -0.34 1.36 0 0 Z " fill="#444444" transform="translate(260,114)"/>
<path d="M0 0 C0.33 0.66 0.66 1.32 1 2 C-2.01887244 5.48331435 -4.56909529 6.79157144 -9 8 C-3.85714286 1.42857143 -3.85714286 1.42857143 0 0 Z " fill="#EAEAEA" transform="translate(148,71)"/>
<path d="M0 0 C2.64 0 5.28 0 8 0 C6.8125 2.4375 6.8125 2.4375 5 5 C2.3125 5.8125 2.3125 5.8125 0 6 C0.99 5.01 1.98 4.02 3 3 C2.01 2.01 1.02 1.02 0 0 Z " fill="#242424" transform="translate(123,46)"/>
<path d="M0 0 C0.99 0.33 1.98 0.66 3 1 C4.1875 4.0625 4.1875 4.0625 5 7 C4.34 7 3.68 7 3 7 C3 6.34 3 5.68 3 5 C1.35 5.66 -0.3 6.32 -2 7 C-1.34 4.69 -0.68 2.38 0 0 Z " fill="#434343" transform="translate(291,115)"/>
<path d="M0 0 C1.98 0 3.96 0 6 0 C6 0.66 6 1.32 6 2 C5.34 2 4.68 2 4 2 C4 3.98 4 5.96 4 8 C3.34 8 2.68 8 2 8 C2 6.02 2 4.04 2 2 C1.34 2 0.68 2 0 2 C0 1.34 0 0.68 0 0 Z " fill="#4E4E4E" transform="translate(274,114)"/>
<path d="M0 0 C1.98 0 3.96 0 6 0 C6 0.66 6 1.32 6 2 C5.34 2 4.68 2 4 2 C4 3.98 4 5.96 4 8 C3.34 8 2.68 8 2 8 C2 6.02 2 4.04 2 2 C1.34 2 0.68 2 0 2 C0 1.34 0 0.68 0 0 Z " fill="#505050" transform="translate(369,114)"/>
<path d="M0 0 C-3.55818936 2.26273207 -6.12547951 2.07331744 -10.25 1.625 C-11.32765625 1.51414062 -12.4053125 1.40328125 -13.515625 1.2890625 C-14.74539062 1.14597656 -14.74539062 1.14597656 -16 1 C-16 0.67 -16 0.34 -16 0 C-10.47032059 -0.71033431 -5.50016964 -1.30267176 0 0 Z " fill="#616161" transform="translate(72,97)"/>
<path d="M0 0 C-4.95 2.97 -4.95 2.97 -10 6 C-8 1 -8 1 -6.125 -0.375 C-4 -1 -4 -1 0 0 Z " fill="#1F1F1F" transform="translate(143,53)"/>
<path d="M0 0 C0.90105469 0.00902344 1.80210938 0.01804688 2.73046875 0.02734375 C3.41753906 0.03894531 4.10460937 0.05054688 4.8125 0.0625 C1.85071227 1.73360042 -0.55821192 2.38932752 -3.9375 2.6875 C-4.73671875 2.76226562 -5.5359375 2.83703125 -6.359375 2.9140625 C-6.96265625 2.96304688 -7.5659375 3.01203125 -8.1875 3.0625 C-8.1875 2.4025 -8.1875 1.7425 -8.1875 1.0625 C-5.17259443 0.05753148 -3.14568308 -0.04085303 0 0 Z " fill="#090909" transform="translate(80.1875,42.9375)"/>
<path d="M0 0 C0.99 0.33 1.98 0.66 3 1 C2.525625 1.86625 2.05125 2.7325 1.5625 3.625 C0.06765105 6.85387374 -0.58218313 9.49033826 -1 13 C-1.33 13 -1.66 13 -2 13 C-2.05447047 11.58376784 -2.09300508 10.16691809 -2.125 8.75 C-2.14820313 7.96109375 -2.17140625 7.1721875 -2.1953125 6.359375 C-1.9828378 3.79268059 -1.28654105 2.2083933 0 0 Z " fill="#272727" transform="translate(50,79)"/>
<path d="M0 0 C0.99 0.33 1.98 0.66 3 1 C3 2.98 3 4.96 3 7 C2.34 7 1.68 7 1 7 C0.67 7.66 0.34 8.32 0 9 C0 6.03 0 3.06 0 0 Z " fill="#020202" transform="translate(411,78)"/>
<path d="M0 0 C0.66 0.33 1.32 0.66 2 1 C1.54625 1.598125 1.0925 2.19625 0.625 2.8125 C-0.63295913 4.50590652 -1.82984724 6.24477086 -3 8 C-3.99 8.33 -4.98 8.66 -6 9 C-4.68775452 5.06326356 -3.08089673 2.77280706 0 0 Z " fill="#1A1A1A" transform="translate(392,60)"/>
<path d="M0 0 C1.32 0 2.64 0 4 0 C4.33 1.65 4.66 3.3 5 5 C3.02 5.99 3.02 5.99 1 7 C1.020625 6.21625 1.04125 5.4325 1.0625 4.625 C1.18684063 2.01885039 1.18684063 2.01885039 0 0 Z " fill="#515151" transform="translate(313,138)"/>
<path d="M0 0 C1.32 0.33 2.64 0.66 4 1 C4 2.98 4 4.96 4 7 C2.68 7 1.36 7 0 7 C0.185625 6.21625 0.37125 5.4325 0.5625 4.625 C1.25962266 2.02910225 1.25962266 2.02910225 0 0 Z " fill="#545454" transform="translate(286,138)"/>
<path d="M0 0 C1.65 0 3.3 0 5 0 C4.67 2.31 4.34 4.62 4 7 C3.34 7 2.68 7 2 7 C2 5.35 2 3.7 2 2 C1.34 2 0.68 2 0 2 C0 1.34 0 0.68 0 0 Z " fill="#5F5F5F" transform="translate(303,129)"/>
<path d="M0 0 C0.66 0.33 1.32 0.66 2 1 C-0.84936103 4.00765886 -3.23511958 6.27845212 -7 8 C-6.02133662 6.85373678 -5.04205413 5.70800212 -4.0625 4.5625 C-3.51722656 3.92441406 -2.97195312 3.28632812 -2.41015625 2.62890625 C-1.63204305 1.73008851 -0.84063472 0.84063472 0 0 Z " fill="#CCCCCC" transform="translate(120,70)"/>
<path d="M0 0 C2.64 0 5.28 0 8 0 C7.67 1.32 7.34 2.64 7 4 C4.50638429 2.79618552 2.31856917 1.54571278 0 0 Z " fill="#353535" transform="translate(414,59)"/>
</svg>
